<?xml version="1.0" standalone="no"?>
<!DOCTYPE svg PUBLIC "-//W3C//DTD SVG 20010904//EN"
 "http://www.w3.org/TR/2001/REC-SVG-20010904/DTD/svg10.dtd">
<svg version="1.0" xmlns="http://www.w3.org/2000/svg"
 width="48.000000pt" height="48.000000pt" viewBox="0 0 48.000000 48.000000"
 preserveAspectRatio="xMidYMid meet">

<g transform="translate(0.000000,48.000000) scale(0.100000,-0.100000)"
fill="#000000" stroke="none">
<path d="M184 436 c-60 -51 -21 -146 58 -146 52 0 88 35 88 85 0 76 -87 112
-146 61z"/>
<path d="M36 169 c-35 -28 -37 -95 -3 -127 55 -51 147 -12 147 63 0 74 -84
111 -144 64z"/>
<path d="M325 165 c-56 -55 -16 -145 63 -145 52 0 82 32 82 87 0 33 -6 46 -26
62 -37 29 -89 27 -119 -4z"/>
</g>
</svg>
