<?xml version="1.0" encoding="UTF-8"?>
<svg version="1.1" xmlns="http://www.w3.org/2000/svg" width="48" height="48">
<path d="M0 0 C3.03978021 0.68164768 4.80055419 2.23591662 6.93359375 4.43359375 C8.1707427 6.90789165 7.88940737 8.14858708 7.55859375 10.87109375 C7.42324219 12.04478516 7.42324219 12.04478516 7.28515625 13.2421875 C6.93359375 15.43359375 6.93359375 15.43359375 5.93359375 18.43359375 C6.68340683 20.24577387 6.68340683 20.24577387 7.87109375 21.99609375 C9.93359375 25.24715307 9.93359375 25.24715307 9.93359375 27.43359375 C10.98546875 27.33046875 12.03734375 27.22734375 13.12109375 27.12109375 C16.93359375 27.43359375 16.93359375 27.43359375 19.87109375 29.37109375 C22.27023034 32.93344808 22.73449806 35.04667204 22.48046875 39.2734375 C21.93359375 41.43359375 21.93359375 41.43359375 19.37109375 44.49609375 C15.39023439 46.73985084 13.42770809 47.16899428 8.93359375 46.43359375 C6.18030354 44.6379697 4.40731914 43.38104453 2.93359375 40.43359375 C-0.44711531 40.14326568 -3.69557843 39.98839008 -7.06640625 40.43359375 C-9.62675378 42.7143456 -9.62675378 42.7143456 -11.06640625 45.43359375 C-14.30056541 47.05067333 -17.5701589 47.00181751 -21.06640625 46.43359375 C-24.06640625 44.49609375 -24.06640625 44.49609375 -26.06640625 41.43359375 C-26.69507628 38.30693393 -26.7146473 35.55799879 -26.06640625 32.43359375 C-24.19020012 29.93198557 -22.82749322 28.81413723 -20.06640625 27.43359375 C-18.06680613 27.39360175 -16.06593383 27.39012576 -14.06640625 27.43359375 C-12.57486615 23.81128209 -11.15424039 20.19917345 -10.06640625 16.43359375 C-10.39640625 15.77359375 -10.72640625 15.11359375 -11.06640625 14.43359375 C-11.71798397 9.69569287 -11.72260732 6.43840163 -9.06640625 2.37109375 C-5.72174711 0.21100139 -3.89742861 -0.24312882 0 0 Z M-5.06640625 19.43359375 C-9.04089769 25.0109674 -9.04089769 25.0109674 -9.44140625 31.43359375 C-8.21890601 33.34179041 -8.21890601 33.34179041 -7.06640625 34.43359375 C-4.80529819 34.71065163 -4.80529819 34.71065163 -2.19140625 34.74609375 C-1.30710937 34.78347656 -0.4228125 34.82085937 0.48828125 34.859375 C3.0682756 34.64954463 3.0682756 34.64954463 4.79296875 32.59765625 C6.2518306 30.38957728 6.2518306 30.38957728 5.30859375 27.49609375 C4.85484375 26.48546875 4.40109375 25.47484375 3.93359375 24.43359375 C3.52109375 23.48484375 3.10859375 22.53609375 2.68359375 21.55859375 C1.05087252 19.06630612 1.05087252 19.06630612 -2.25390625 19.12109375 C-3.64609375 19.27578125 -3.64609375 19.27578125 -5.06640625 19.43359375 Z " fill="#E04442" transform="translate(26.06640625,0.56640625)"/>
<path d="M0 0 C3.03978021 0.68164768 4.80055419 2.23591662 6.93359375 4.43359375 C8.1707427 6.90789165 7.88940737 8.14858708 7.55859375 10.87109375 C7.46835937 11.65355469 7.378125 12.43601562 7.28515625 13.2421875 C6.93359375 15.43359375 6.93359375 15.43359375 5.93359375 18.43359375 C6.68535158 20.21171187 6.68535158 20.21171187 7.87109375 21.93359375 C9.54337098 24.51853754 9.93359375 25.22138872 9.93359375 28.43359375 C8.61359375 28.76359375 7.29359375 29.09359375 5.93359375 29.43359375 C5.0948092 28.14546033 4.26272592 26.85296119 3.43359375 25.55859375 C2.7375 24.47964844 2.7375 24.47964844 2.02734375 23.37890625 C0.93359375 21.43359375 0.93359375 21.43359375 0.93359375 19.43359375 C-1.04640625 19.43359375 -3.02640625 19.43359375 -5.06640625 19.43359375 C-5.33453125 20.15546875 -5.60265625 20.87734375 -5.87890625 21.62109375 C-7.05623123 24.40949501 -8.45786509 26.87455099 -10.06640625 29.43359375 C-11.38640625 29.10359375 -12.70640625 28.77359375 -14.06640625 28.43359375 C-13.54733144 25.73440474 -12.77132296 23.8888246 -11.44140625 21.43359375 C-9.89823634 18.06667757 -10.09708482 17.75786917 -11.06640625 14.43359375 C-11.66430964 9.65890814 -11.75000598 6.48035583 -9.06640625 2.37109375 C-5.72174711 0.21100139 -3.89742861 -0.24312882 0 0 Z " fill="#E04342" transform="translate(26.06640625,0.56640625)"/>
<path d="M0 0 C3.07858499 2.03055606 4.645391 3.5144032 5.515625 7.16015625 C5.84949668 11.70536384 5.43292832 13.48259786 2.4375 17.0625 C-1.54335936 19.30625709 -3.50588566 19.73540053 -8 19 C-10.75329021 17.20437595 -12.52627461 15.94745078 -14 13 C-14.375 9.6875 -14.375 9.6875 -14 6 C-9.66787606 0.75584997 -6.79924775 -0.69144892 0 0 Z " fill="#E04443" transform="translate(43,28)"/>
<path d="M0 0 C1.32 0.33 2.64 0.66 4 1 C3.32902328 5.19360449 1.1441606 8.40334352 -1 12 C-2.32 11.67 -3.64 11.34 -5 11 C-4.32902328 6.80639551 -2.1441606 3.59665648 0 0 Z " fill="#FACE25" transform="translate(17,18)"/>
<path d="M0 0 C3.33571429 1.11190476 3.58417079 1.46320673 5.1875 4.375 C5.70376953 5.28378906 5.70376953 5.28378906 6.23046875 6.2109375 C7 8 7 8 7 11 C5.68 11.33 4.36 11.66 3 12 C2.15841464 10.73461631 1.32700252 9.46246221 0.5 8.1875 C-0.19609375 7.12595703 -0.19609375 7.12595703 -0.90625 6.04296875 C-2 4 -2 4 -2 1 C-1.34 0.67 -0.68 0.34 0 0 Z " fill="#F6CA1C" transform="translate(29,18)"/>
<path d="M0 0 C3.3 0 6.6 0 10 0 C10 1.65 10 3.3 10 5 C6.7 5 3.4 5 0 5 C0 3.35 0 1.7 0 0 Z " fill="#F7CD22" transform="translate(19,35)"/>
</svg>
